<?xml version="1.0" encoding="UTF-8" standalone="no"?>
<!DOCTYPE svg PUBLIC "-//W3C//DTD SVG 1.1//EN"
 "http://www.w3.org/Graphics/SVG/1.1/DTD/svg11.dtd">
<!-- Generated by graphviz version 2.48.0 (20210717.1556)
 -->
<!-- Title: ClassDiagram Pages: 1 -->
<svg width="408pt" height="398pt"
 viewBox="0.00 0.00 407.54 398.00" xmlns="http://www.w3.org/2000/svg" xmlns:xlink="http://www.w3.org/1999/xlink">
<g id="graph0" class="graph" transform="scale(1 1) rotate(0) translate(4 394)">
<title>ClassDiagram</title>
<g id="a_graph0"><a xlink:title="Class Diagram">
<polygon fill="#efefef" stroke="transparent" points="-4,4 -4,-394 403.54,-394 403.54,4 -4,4"/>
</a>
</g>
<!-- threeclasses_class1 -->
<g id="node1" class="node">
<title>threeclasses_class1</title>
<polygon fill="darkgray" stroke="transparent" points="44.54,-292 44.54,-380 226.54,-380 226.54,-292 44.54,-292"/>
<polygon fill="blue" stroke="transparent" points="44.54,-358 44.54,-380 66.54,-380 66.54,-358 44.54,-358"/>
<image xlink:href="./Templates/Default/class.gif" width="12px" height="12px" preserveAspectRatio="xMinYMin meet" x="49.5368" y="-375"/>
<polygon fill="blue" stroke="transparent" points="66.54,-358 66.54,-380 226.54,-380 226.54,-358 66.54,-358"/>
<text text-anchor="start" x="132.04" y="-367.5" font-family="Segoe UI" font-weight="bold" font-size="10.00" fill="white">Class1</text>
<image xlink:href="./Templates/Default/property.gif" width="12px" height="12px" preserveAspectRatio="xMinYMin meet" x="49.5368" y="-353"/>
<text text-anchor="start" x="71.54" y="-344.5" font-family="Segoe UI" font-size="10.00">PublicString</text>
<text text-anchor="start" x="145.54" y="-344.5" font-family="Segoe UI" font-size="10.00">String</text>
<text text-anchor="start" x="183.54" y="-344.5" font-family="Segoe UI" font-size="10.00"> get; set;</text>
<image xlink:href="./Templates/Default/property.gif" width="12px" height="12px" preserveAspectRatio="xMinYMin meet" x="49.5368" y="-331"/>
<text text-anchor="start" x="71.54" y="-322.5" font-family="Segoe UI" font-size="10.00">Class2Instance</text>
<text text-anchor="start" x="145.54" y="-322.5" font-family="Segoe UI" font-size="10.00">Class2</text>
<text text-anchor="start" x="183.54" y="-322.5" font-family="Segoe UI" font-size="10.00"> get;</text>
<image xlink:href="./Templates/Default/property.gif" width="12px" height="12px" preserveAspectRatio="xMinYMin meet" x="49.5368" y="-309"/>
<text text-anchor="start" x="71.54" y="-300.5" font-family="Segoe UI" font-size="10.00">Class3Instance</text>
<text text-anchor="start" x="145.54" y="-300.5" font-family="Segoe UI" font-size="10.00">Class3</text>
<text text-anchor="start" x="183.54" y="-300.5" font-family="Segoe UI" font-size="10.00"> get;</text>
</g>
<!-- threeclasses_class2 -->
<g id="node2" class="node">
<title>threeclasses_class2</title>
<polygon fill="darkgray" stroke="transparent" points="173.54,-151 173.54,-239 355.54,-239 355.54,-151 173.54,-151"/>
<polygon fill="blue" stroke="transparent" points="173.54,-217 173.54,-239 195.54,-239 195.54,-217 173.54,-217"/>
<image xlink:href="./Templates/Default/class.gif" width="12px" height="12px" preserveAspectRatio="xMinYMin meet" x="178.537" y="-234"/>
<polygon fill="blue" stroke="transparent" points="195.54,-217 195.54,-239 355.54,-239 355.54,-217 195.54,-217"/>
<text text-anchor="start" x="261.04" y="-226.5" font-family="Segoe UI" font-weight="bold" font-size="10.00" fill="white">Class2</text>
<image xlink:href="./Templates/Default/property.gif" width="12px" height="12px" preserveAspectRatio="xMinYMin meet" x="178.537" y="-212"/>
<text text-anchor="start" x="200.54" y="-203.5" font-family="Segoe UI" font-size="10.00">PublicString</text>
<text text-anchor="start" x="274.54" y="-203.5" font-family="Segoe UI" font-size="10.00">String</text>
<text text-anchor="start" x="312.54" y="-203.5" font-family="Segoe UI" font-size="10.00"> get; set;</text>
<image xlink:href="./Templates/Default/property.gif" width="12px" height="12px" preserveAspectRatio="xMinYMin meet" x="178.537" y="-190"/>
<text text-anchor="start" x="200.54" y="-181.5" font-family="Segoe UI" font-size="10.00">Class2Instance</text>
<text text-anchor="start" x="274.54" y="-181.5" font-family="Segoe UI" font-size="10.00">Class1</text>
<text text-anchor="start" x="312.54" y="-181.5" font-family="Segoe UI" font-size="10.00"> get;</text>
<image xlink:href="./Templates/Default/property.gif" width="12px" height="12px" preserveAspectRatio="xMinYMin meet" x="178.537" y="-168"/>
<text text-anchor="start" x="200.54" y="-159.5" font-family="Segoe UI" font-size="10.00">Class3Instance</text>
<text text-anchor="start" x="274.54" y="-159.5" font-family="Segoe UI" font-size="10.00">Class3</text>
<text text-anchor="start" x="312.54" y="-159.5" font-family="Segoe UI" font-size="10.00"> get;</text>
</g>
<!-- threeclasses_class1&#45;&gt;threeclasses_class2 -->
<g id="edge1" class="edge">
<title>threeclasses_class1:f.Class2Instance&#45;&gt;threeclasses_class2:c.threeclasses_class2</title>
<path fill="none" stroke="gray" d="M43.54,-325C27.09,-325 34.63,-301.14 44.54,-288 60.53,-266.79 76.49,-278.85 101.54,-270 111.89,-266.35 113.92,-263.78 124.54,-261 153.73,-253.37 250.7,-269.55 271.56,-249.24"/>
<polygon fill="gray" stroke="gray" points="274.8,-250.57 275.54,-240 268.37,-247.8 274.8,-250.57"/>
<text text-anchor="middle" x="153.04" y="-263.6" font-family="Segoe UI" font-size="8.00">Class2Instance</text>
<text text-anchor="middle" x="268.54" y="-242.6" font-family="Segoe UI" font-size="8.00">0..1</text>
<text text-anchor="middle" x="36.54" y="-327.6" font-family="Segoe UI" font-size="8.00">0..1</text>
</g>
<!-- threeclasses_class3 -->
<g id="node3" class="node">
<title>threeclasses_class3</title>
<polygon fill="darkgray" stroke="transparent" points="80.54,-10 80.54,-98 262.54,-98 262.54,-10 80.54,-10"/>
<polygon fill="blue" stroke="transparent" points="80.54,-76 80.54,-98 102.54,-98 102.54,-76 80.54,-76"/>
<image xlink:href="./Templates/Default/class.gif" width="12px" height="12px" preserveAspectRatio="xMinYMin meet" x="85.5368" y="-93"/>
<polygon fill="blue" stroke="transparent" points="102.54,-76 102.54,-98 262.54,-98 262.54,-76 102.54,-76"/>
<text text-anchor="start" x="168.04" y="-85.5" font-family="Segoe UI" font-weight="bold" font-size="10.00" fill="white">Class3</text>
<image xlink:href="./Templates/Default/property.gif" width="12px" height="12px" preserveAspectRatio="xMinYMin meet" x="85.5368" y="-71"/>
<text text-anchor="start" x="107.54" y="-62.5" font-family="Segoe UI" font-size="10.00">PublicString</text>
<text text-anchor="start" x="181.54" y="-62.5" font-family="Segoe UI" font-size="10.00">String</text>
<text text-anchor="start" x="219.54" y="-62.5" font-family="Segoe UI" font-size="10.00"> get; set;</text>
<image xlink:href="./Templates/Default/property.gif" width="12px" height="12px" preserveAspectRatio="xMinYMin meet" x="85.5368" y="-49"/>
<text text-anchor="start" x="107.54" y="-40.5" font-family="Segoe UI" font-size="10.00">Class1Instance</text>
<text text-anchor="start" x="181.54" y="-40.5" font-family="Segoe UI" font-size="10.00">Class1</text>
<text text-anchor="start" x="219.54" y="-40.5" font-family="Segoe UI" font-size="10.00"> get;</text>
<image xlink:href="./Templates/Default/property.gif" width="12px" height="12px" preserveAspectRatio="xMinYMin meet" x="85.5368" y="-27"/>
<text text-anchor="start" x="107.54" y="-18.5" font-family="Segoe UI" font-size="10.00">Class2Instance</text>
<text text-anchor="start" x="181.54" y="-18.5" font-family="Segoe UI" font-size="10.00">Class2</text>
<text text-anchor="start" x="219.54" y="-18.5" font-family="Segoe UI" font-size="10.00"> get;</text>
</g>
<!-- threeclasses_class1&#45;&gt;threeclasses_class3 -->
<g id="edge2" class="edge">
<title>threeclasses_class1:f.Class3Instance&#45;&gt;threeclasses_class3:c.threeclasses_class3</title>
<path fill="none" stroke="gray" d="M43.54,-303C-23.43,-303 5.57,-154.87 11.54,-147 56.98,-87.04 171.14,-169.48 181.74,-109"/>
<polygon fill="gray" stroke="gray" points="185.24,-109.25 182.54,-99 178.26,-108.69 185.24,-109.25"/>
<text text-anchor="middle" x="40.04" y="-193.1" font-family="Segoe UI" font-size="8.00">Class3Instance</text>
<text text-anchor="middle" x="175.54" y="-101.6" font-family="Segoe UI" font-size="8.00">0..1</text>
<text text-anchor="middle" x="36.54" y="-305.6" font-family="Segoe UI" font-size="8.00">0..1</text>
</g>
<!-- threeclasses_class2&#45;&gt;threeclasses_class1 -->
<g id="edge3" class="edge">
<title>threeclasses_class2:f.Class2Instance&#45;&gt;threeclasses_class1:c.threeclasses_class1</title>
<path fill="none" stroke="gray" d="M172.54,-184C146.31,-184 162.32,-219.29 173.54,-243 186.75,-270.93 213.39,-260.04 226.54,-288 240.12,-316.89 258.71,-358.23 237.64,-367.23"/>
<polygon fill="gray" stroke="gray" points="236.78,-363.83 227.54,-369 237.99,-370.72 236.78,-363.83"/>
<text text-anchor="middle" x="237.04" y="-263.6" font-family="Segoe UI" font-size="8.00">Class2Instance</text>
<text text-anchor="middle" x="234.54" y="-371.6" font-family="Segoe UI" font-size="8.00">0..1</text>
<text text-anchor="middle" x="165.54" y="-186.6" font-family="Segoe UI" font-size="8.00">0..1</text>
</g>
<!-- threeclasses_class2&#45;&gt;threeclasses_class3 -->
<g id="edge4" class="edge">
<title>threeclasses_class2:f.Class3Instance&#45;&gt;threeclasses_class3:c.threeclasses_class3</title>
<path fill="none" stroke="gray" d="M184.54,-150C184.54,-131.21 183.17,-124.12 182.69,-109.36"/>
<polygon fill="gray" stroke="gray" points="186.19,-108.95 182.54,-99 179.19,-109.05 186.19,-108.95"/>
<text text-anchor="middle" x="212.04" y="-122.6" font-family="Segoe UI" font-size="8.00">Class3Instance</text>
<text text-anchor="middle" x="189.54" y="-101.6" font-family="Segoe UI" font-size="8.00">0..1</text>
<text text-anchor="middle" x="177.54" y="-143.6" font-family="Segoe UI" font-size="8.00">0..1</text>
</g>
<!-- threeclasses_class3&#45;&gt;threeclasses_class1 -->
<g id="edge5" class="edge">
<title>threeclasses_class3:f.Class1Instance&#45;&gt;threeclasses_class1:c.threeclasses_class1</title>
<path fill="none" stroke="gray" d="M79.54,-43C54.16,-43 86.19,-252.47 104.54,-270 146.71,-310.3 196.22,-244.02 234.54,-288 261.39,-318.83 263.28,-350.92 234.54,-380 229.09,-385.51 176.95,-389.06 155.59,-385.42"/>
<polygon fill="gray" stroke="gray" points="157.06,-382.24 146.54,-381 153.99,-388.53 157.06,-382.24"/>
<text text-anchor="middle" x="121.04" y="-193.1" font-family="Segoe UI" font-size="8.00">Class1Instance</text>
<text text-anchor="middle" x="139.54" y="-383.6" font-family="Segoe UI" font-size="8.00">0..1</text>
<text text-anchor="middle" x="72.54" y="-45.6" font-family="Segoe UI" font-size="8.00">0..1</text>
</g>
<!-- threeclasses_class3&#45;&gt;threeclasses_class2 -->
<g id="edge6" class="edge">
<title>threeclasses_class3:f.Class2Instance&#45;&gt;threeclasses_class2:c.threeclasses_class2</title>
<path fill="none" stroke="gray" d="M91.54,-9C91.54,3.45 -7.45,-13.21 72.54,-102 98.26,-130.55 206.62,-113.74 244.54,-120 298.04,-128.84 329.7,-104.62 363.54,-147 389.05,-178.95 392.28,-209.92 363.54,-239 358.09,-244.51 305.95,-248.06 284.59,-244.42"/>
<polygon fill="gray" stroke="gray" points="286.06,-241.24 275.54,-240 282.99,-247.53 286.06,-241.24"/>
<text text-anchor="middle" x="371.04" y="-122.6" font-family="Segoe UI" font-size="8.00">Class2Instance</text>
<text text-anchor="middle" x="282.54" y="-242.6" font-family="Segoe UI" font-size="8.00">0..1</text>
<text text-anchor="middle" x="84.54" y="-2.6" font-family="Segoe UI" font-size="8.00">0..1</text>
</g>
</g>
</svg>
